<svg xmlns="http://www.w3.org/2000/svg" viewBox="0 0 2000 2600"><defs><style>.cls-1{fill:none;stroke:#5a73a6;stroke-miterlimit:10;}.cls-2{fill:#5a73a6;}</style></defs><g id="connections"><g id="above"><line class="cls-1" x1="1826.62" y1="97.2" x2="1792.77" y2="77.66"/><line class="cls-1" x1="1860.46" y1="77.66" x2="1826.62" y2="97.2"/><line class="cls-1" x1="136.46" y1="857.57" x2="102.62" y2="838.03"/><line class="cls-1" x1="1807.26" y1="1109.02" x2="1841.11" y2="1128.56"/><line class="cls-1" x1="1773.42" y1="1128.56" x2="1807.26" y2="1109.02"/><line class="cls-1" x1="279.66" y1="1228.48" x2="245.81" y2="1208.94"/><line class="cls-1" x1="313.5" y1="1208.94" x2="279.66" y2="1228.48"/><line class="cls-1" x1="88.4" y1="1948.63" x2="122.25" y2="1968.17"/><line class="cls-1" x1="20.71" y1="1948.63" x2="54.56" y2="1968.17"/><line class="cls-1" x1="54.56" y1="1968.17" x2="88.4" y2="1948.63"/><line class="cls-1" x1="296.58" y1="2311.8" x2="228.89" y2="2350.88"/><line class="cls-1" x1="1934.89" y1="1293.9" x2="1867.2" y2="1332.98"/><line class="cls-1" x1="102.62" y1="838.03" x2="34.92" y2="877.11"/><line class="cls-1" x1="99.6" y1="1559.96" x2="167.29" y2="1599.04"/><line class="cls-1" x1="1734.71" y1="334.05" x2="1768.56" y2="314.51"/><line class="cls-1" x1="76.89" y1="1067.62" x2="110.74" y2="1048.08"/><line class="cls-1" x1="1919.07" y1="994.95" x2="1919.07" y2="955.87"/><line class="cls-1" x1="102.62" y1="838.03" x2="102.62" y2="798.95"/><line class="cls-1" x1="1881.08" y1="159.06" x2="1948.77" y2="198.14"/><line class="cls-1" x1="1976.99" y1="595.89" x2="1943.14" y2="615.43"/><line class="cls-1" x1="1976.99" y1="556.8" x2="1976.99" y2="595.89"/><line class="cls-1" x1="46.89" y1="114.15" x2="80.74" y2="94.61"/><line class="cls-1" x1="46.89" y1="153.23" x2="46.89" y2="114.15"/><line class="cls-1" x1="318.92" y1="528.9" x2="352.77" y2="548.44"/><line class="cls-1" x1="1932.44" y1="1659.79" x2="1966.29" y2="1679.33"/></g></g><g id="nodes"><g id="above-2" data-name="above"><circle class="cls-2" cx="1792.77" cy="77.66" r="2.71"/><circle class="cls-2" cx="1860.46" cy="77.66" r="2.71"/><circle class="cls-2" cx="228.89" cy="2350.88" r="2.71"/><circle class="cls-2" cx="262.74" cy="2331.34" r="2.71"/><circle class="cls-2" cx="296.58" cy="2311.8" r="2.71"/><circle class="cls-2" cx="1867.2" cy="1332.98" r="2.71"/><circle class="cls-2" cx="1901.04" cy="1313.44" r="2.71"/><circle class="cls-2" cx="1934.89" cy="1293.9" r="2.71"/><circle class="cls-2" cx="34.92" cy="877.11" r="2.71"/><circle class="cls-2" cx="68.77" cy="857.57" r="2.71"/><circle class="cls-2" cx="102.62" cy="838.03" r="2.71"/><circle class="cls-2" cx="167.29" cy="1599.04" r="2.71"/><circle class="cls-2" cx="133.44" cy="1579.5" r="2.71"/><circle class="cls-2" cx="99.6" cy="1559.96" r="2.71"/><circle class="cls-2" cx="1734.71" cy="334.05" r="2.71"/><circle class="cls-2" cx="318.92" cy="528.9" r="2.71"/><circle class="cls-2" cx="352.77" cy="548.44" r="2.71"/><circle class="cls-2" cx="1932.44" cy="1659.79" r="2.71"/><circle class="cls-2" cx="1966.29" cy="1679.33" r="2.71"/><circle class="cls-2" cx="1768.56" cy="314.51" r="2.71"/><circle class="cls-2" cx="76.89" cy="1067.62" r="2.71"/><circle class="cls-2" cx="110.74" cy="1048.08" r="2.71"/><circle class="cls-2" cx="1919.07" cy="994.95" r="2.71"/><circle class="cls-2" cx="1919.07" cy="955.87" r="2.71"/><circle class="cls-2" cx="102.62" cy="798.95" r="2.71"/><circle class="cls-2" cx="1914.92" cy="178.6" r="2.71"/><circle class="cls-2" cx="1881.08" cy="159.06" r="2.71"/><circle class="cls-2" cx="1948.77" cy="198.14" r="2.71"/><circle class="cls-2" cx="1826.62" cy="97.2" r="2.71"/><circle class="cls-2" cx="1943.14" cy="615.43" r="2.71"/><circle class="cls-2" cx="1976.99" cy="556.8" r="2.71"/><circle class="cls-2" cx="1976.99" cy="595.89" r="2.71"/><circle class="cls-2" cx="80.74" cy="94.61" r="2.71"/><circle class="cls-2" cx="46.89" cy="153.23" r="2.71"/><circle class="cls-2" cx="46.89" cy="114.15" r="2.71"/><circle class="cls-2" cx="136.46" cy="857.57" r="2.71"/><circle class="cls-2" cx="1841.11" cy="1128.56" r="2.71"/><circle class="cls-2" cx="1773.42" cy="1128.56" r="2.71"/><circle class="cls-2" cx="1807.26" cy="1109.02" r="2.71"/><circle class="cls-2" cx="245.81" cy="1208.94" r="2.71"/><circle class="cls-2" cx="313.5" cy="1208.94" r="2.71"/><circle class="cls-2" cx="279.66" cy="1228.48" r="2.71"/><circle class="cls-2" cx="122.25" cy="1968.17" r="2.71"/><circle class="cls-2" cx="54.56" cy="1968.17" r="2.71"/><circle class="cls-2" cx="88.4" cy="1948.63" r="2.71"/><circle class="cls-2" cx="20.71" cy="1948.63" r="2.71"/></g></g></svg>