<svg xmlns="http://www.w3.org/2000/svg" viewBox="0 0 2000 2600"><defs><style>.cls-1{fill:none;stroke:#141419;stroke-miterlimit:10;}.cls-2{fill:#141419;}</style></defs><g id="connections"><g id="below"><line class="cls-1" x1="96.12" y1="1621.01" x2="75.81" y2="1632.74"/><line class="cls-1" x1="1835.2" y1="1253.33" x2="1814.89" y2="1241.61"/><polyline class="cls-1" points="1574.72 232.11 1615.34 208.66 1635.65 220.39"/><polyline class="cls-1" points="370.04 1114.69 410.65 1091.24 430.96 1102.96"/><polyline class="cls-1" points="1374.1 2099.61 1414.72 2076.16 1435.03 2087.89"/><polyline class="cls-1" points="324.93 251.84 284.31 228.39 284.31 204.94"/><polyline class="cls-1" points="1881.48 876.13 1922.1 852.68 1942.41 864.41"/><line class="cls-1" x1="44.13" y1="364.74" x2="64.44" y2="376.46"/><line class="cls-1" x1="45.76" y1="543.01" x2="66.06" y2="554.73"/><line class="cls-1" x1="66.06" y1="554.73" x2="86.37" y2="566.46"/><polyline class="cls-1" points="1920.5 353.29 1940.81 341.56 1961.12 353.29 1981.42 341.56"/><polyline class="cls-1" points="1697.12 68.71 1717.42 56.98 1717.42 33.53"/><polyline class="cls-1" points="150.96 1817.89 171.26 1806.17 171.26 1782.72"/><polyline class="cls-1" points="1523.56 1350.57 1543.87 1338.84 1543.87 1315.39"/><polyline class="cls-1" points="599.34 1406.85 599.34 1383.4 579.03 1371.68"/><polyline class="cls-1" points="267.85 644.91 247.55 656.63 267.85 668.36"/><polyline class="cls-1" points="1822.56 563.07 1802.25 574.8 1822.56 586.52"/><polyline class="cls-1" points="298.88 1532.17 278.57 1543.9 298.88 1555.63"/><polyline class="cls-1" points="172.88 968.64 193.19 956.92 213.5 968.64 233.8 956.92"/><polyline class="cls-1" points="1564.42 522.05 1584.72 510.33 1605.03 522.05 1625.34 510.33"/><polyline class="cls-1" points="1930.02 1196.31 1950.32 1184.59 1970.63 1196.31 1990.94 1184.59"/><polyline class="cls-1" points="35.6 1430.58 55.91 1418.86 76.22 1430.58 96.52 1418.86"/><polyline class="cls-1" points="653.38 926.03 633.08 914.3 612.77 926.03 592.46 914.3"/><polyline class="cls-1" points="1768.83 1675.69 1789.14 1663.97 1809.45 1675.69 1829.76 1663.97"/><polyline class="cls-1" points="103.29 1150.31 123.6 1162.04 103.29 1173.76"/><polyline class="cls-1" points="1848.72 1445.06 1869.03 1456.79 1848.72 1468.51"/><line class="cls-1" x1="1972.04" y1="54.4" x2="1972.04" y2="77.85"/><line class="cls-1" x1="1738.28" y1="124.79" x2="1758.58" y2="113.06"/><line class="cls-1" x1="1494.29" y1="750.78" x2="1514.6" y2="739.05"/><polyline class="cls-1" points="108.71 467.98 149.32 444.53 169.63 456.26"/><polyline class="cls-1" points="1891.37 466.54 1871.06 478.26 1850.76 466.54"/><line class="cls-1" x1="125.22" y1="242.53" x2="125.22" y2="265.99"/></g></g><g id="nodes"><g id="below-2" data-name="below"><circle class="cls-2" cx="64.44" cy="376.46" r="1.62"/><circle class="cls-2" cx="1920.5" cy="353.29" r="1.62"/><circle class="cls-2" cx="1940.81" cy="341.56" r="1.62"/><circle class="cls-2" cx="1981.42" cy="341.56" r="1.62"/><circle class="cls-2" cx="1961.12" cy="353.29" r="1.62"/><circle class="cls-2" cx="1972.04" cy="77.85" r="1.62"/><circle class="cls-2" cx="1972.04" cy="54.4" r="1.62"/><circle class="cls-2" cx="247.55" cy="656.63" r="1.62"/><circle class="cls-2" cx="267.85" cy="668.36" r="1.62"/><circle class="cls-2" cx="267.85" cy="644.91" r="1.62"/><circle class="cls-2" cx="1802.25" cy="574.8" r="1.62"/><circle class="cls-2" cx="1822.56" cy="586.52" r="1.62"/><circle class="cls-2" cx="1822.56" cy="563.07" r="1.62"/><circle class="cls-2" cx="278.58" cy="1543.9" r="1.62"/><circle class="cls-2" cx="298.88" cy="1555.63" r="1.62"/><circle class="cls-2" cx="298.88" cy="1532.18" r="1.62"/><circle class="cls-2" cx="172.88" cy="968.64" r="1.62"/><circle class="cls-2" cx="193.19" cy="956.92" r="1.62"/><circle class="cls-2" cx="233.8" cy="956.92" r="1.62"/><circle class="cls-2" cx="213.5" cy="968.64" r="1.62"/><circle class="cls-2" cx="1564.42" cy="522.05" r="1.62"/><circle class="cls-2" cx="1584.72" cy="510.33" r="1.62"/><circle class="cls-2" cx="1625.34" cy="510.33" r="1.62"/><circle class="cls-2" cx="1605.03" cy="522.05" r="1.62"/><circle class="cls-2" cx="1930.02" cy="1196.31" r="1.62"/><circle class="cls-2" cx="1950.32" cy="1184.59" r="1.62"/><circle class="cls-2" cx="1990.94" cy="1184.59" r="1.62"/><circle class="cls-2" cx="1970.63" cy="1196.31" r="1.62"/><circle class="cls-2" cx="35.6" cy="1430.58" r="1.62"/><circle class="cls-2" cx="55.91" cy="1418.86" r="1.62"/><circle class="cls-2" cx="96.52" cy="1418.86" r="1.62"/><circle class="cls-2" cx="76.22" cy="1430.58" r="1.62"/><circle class="cls-2" cx="653.38" cy="926.03" r="1.62"/><circle class="cls-2" cx="633.08" cy="914.3" r="1.62"/><circle class="cls-2" cx="592.46" cy="914.3" r="1.62"/><circle class="cls-2" cx="612.77" cy="926.03" r="1.62"/><circle class="cls-2" cx="1768.83" cy="1675.69" r="1.62"/><circle class="cls-2" cx="1789.14" cy="1663.97" r="1.62"/><circle class="cls-2" cx="1829.76" cy="1663.97" r="1.62"/><circle class="cls-2" cx="1809.45" cy="1675.69" r="1.62"/><circle class="cls-2" cx="123.6" cy="1162.04" r="1.62"/><circle class="cls-2" cx="103.29" cy="1173.76" r="1.62"/><circle class="cls-2" cx="103.29" cy="1150.31" r="1.62"/><circle class="cls-2" cx="1869.03" cy="1456.79" r="1.62"/><circle class="cls-2" cx="1848.72" cy="1468.51" r="1.62"/><circle class="cls-2" cx="1848.72" cy="1445.06" r="1.62"/><circle class="cls-2" cx="1697.12" cy="68.71" r="1.62"/><circle class="cls-2" cx="1717.43" cy="56.98" r="1.62"/><circle class="cls-2" cx="1717.43" cy="33.53" r="1.62"/><circle class="cls-2" cx="150.96" cy="1817.89" r="1.62"/><circle class="cls-2" cx="171.26" cy="1806.17" r="1.62"/><circle class="cls-2" cx="171.26" cy="1782.72" r="1.62"/><circle class="cls-2" cx="1523.56" cy="1350.57" r="1.62"/><circle class="cls-2" cx="1543.87" cy="1338.84" r="1.62"/><circle class="cls-2" cx="1543.87" cy="1315.39" r="1.62"/><circle class="cls-2" cx="599.34" cy="1406.85" r="1.62"/><circle class="cls-2" cx="599.34" cy="1383.41" r="1.62"/><circle class="cls-2" cx="579.03" cy="1371.68" r="1.62"/><circle class="cls-2" cx="44.13" cy="364.74" r="1.62"/><circle class="cls-2" cx="66.06" cy="554.73" r="1.62"/><circle class="cls-2" cx="45.76" cy="543.01" r="1.62"/><circle class="cls-2" cx="86.37" cy="566.46" r="1.62"/><circle class="cls-2" cx="1574.72" cy="232.11" r="1.62"/><circle class="cls-2" cx="1615.34" cy="208.66" r="1.62"/><circle class="cls-2" cx="1635.65" cy="220.39" r="1.62"/><circle class="cls-2" cx="370.04" cy="1114.69" r="1.62"/><circle class="cls-2" cx="410.65" cy="1091.24" r="1.62"/><circle class="cls-2" cx="430.96" cy="1102.96" r="1.62"/><circle class="cls-2" cx="1374.1" cy="2099.61" r="1.62"/><circle class="cls-2" cx="1414.72" cy="2076.16" r="1.62"/><circle class="cls-2" cx="1435.03" cy="2087.89" r="1.62"/><circle class="cls-2" cx="324.93" cy="251.84" r="1.62"/><circle class="cls-2" cx="284.31" cy="228.39" r="1.62"/><circle class="cls-2" cx="284.31" cy="204.94" r="1.62"/><circle class="cls-2" cx="1881.48" cy="876.13" r="1.62"/><circle class="cls-2" cx="1922.1" cy="852.68" r="1.62"/><circle class="cls-2" cx="1942.41" cy="864.41" r="1.62"/><circle class="cls-2" cx="1758.58" cy="113.06" r="1.62"/><circle class="cls-2" cx="125.22" cy="242.53" r="1.62"/><circle class="cls-2" cx="125.22" cy="265.99" r="1.62"/><circle class="cls-2" cx="108.71" cy="467.98" r="1.62"/><circle class="cls-2" cx="149.32" cy="444.53" r="1.62"/><circle class="cls-2" cx="169.63" cy="456.26" r="1.62"/><circle class="cls-2" cx="1891.37" cy="466.54" r="1.62"/><circle class="cls-2" cx="1871.06" cy="478.27" r="1.62"/><circle class="cls-2" cx="1850.76" cy="466.54" r="1.62"/><circle class="cls-2" cx="1738.28" cy="124.79" r="1.62"/><circle class="cls-2" cx="1514.6" cy="739.05" r="1.62"/><circle class="cls-2" cx="1494.29" cy="750.78" r="1.62"/><circle class="cls-2" cx="96.12" cy="1621.01" r="1.62"/><circle class="cls-2" cx="75.81" cy="1632.74" r="1.62"/><circle class="cls-2" cx="1835.2" cy="1253.33" r="1.62"/><circle class="cls-2" cx="1814.89" cy="1241.61" r="1.62"/></g></g></svg>