<svg xmlns="http://www.w3.org/2000/svg" viewBox="0 0 1440 2700"><defs><style>.cls-1{fill:none;stroke:#141419;stroke-miterlimit:10;}.cls-2{fill:#141419;}</style></defs><g id="connections"><g id="neutral"><line class="cls-1" x1="1155" y1="2299.07" x2="1125" y2="2316.39"/><line class="cls-1" x1="1227.4" y1="1960.15" x2="1197.4" y2="1942.83"/><polyline class="cls-1" points="1050 395.06 1110 360.41 1140 377.74"/><polyline class="cls-1" points="1341 1518.54 1401 1483.9 1431 1501.22"/><polyline class="cls-1" points="1172.4 2687.36 1232.4 2652.72 1262.4 2670.04"/><line class="cls-1" x1="920.2" y1="269.87" x2="950.2" y2="287.2"/><polyline class="cls-1" points="1250 512.36 1280 495.04 1310 512.36 1340 495.04"/><polyline class="cls-1" points="1050 136.27 1080 118.95 1080 84.31"/><polyline class="cls-1" points="1370 405.34 1340 422.66 1370 439.98"/><polyline class="cls-1" points="1320 1336.36 1350 1319.04 1380 1336.36 1410 1319.04"/><polyline class="cls-1" points="1293.6 1802.06 1323.6 1784.74 1353.6 1802.06 1383.6 1784.74"/><polyline class="cls-1" points="1321.4 2465.92 1351.4 2448.6 1381.4 2465.92 1411.4 2448.6"/><polyline class="cls-1" points="1207.4 1598.7 1237.4 1616.02 1207.4 1633.34"/><polyline class="cls-1" points="1232.6 2169.53 1262.6 2186.85 1232.6 2204.17"/><line class="cls-1" x1="1400" y1="115.13" x2="1400" y2="149.78"/><line class="cls-1" x1="1110.8" y1="219.11" x2="1140.8" y2="201.79"/><polyline class="cls-1" points="1125 844.03 1185 809.39 1215 826.71"/><polyline class="cls-1" points="1295.6 723.98 1265.6 741.3 1235.6 723.98"/><line class="cls-1" x1="1062.4" y1="1444.69" x2="1062.4" y2="1479.34"/></g></g><g id="nodes"><g id="neutral-2" data-name="neutral"><circle class="cls-2" cx="950.2" cy="287.2" r="2.4"/><circle class="cls-2" cx="1250" cy="512.36" r="2.4"/><circle class="cls-2" cx="1280" cy="495.04" r="2.4"/><circle class="cls-2" cx="1340" cy="495.04" r="2.4"/><circle class="cls-2" cx="1310" cy="512.36" r="2.4"/><circle class="cls-2" cx="1400" cy="149.78" r="2.4"/><circle class="cls-2" cx="1400" cy="115.13" r="2.4"/><circle class="cls-2" cx="1340" cy="422.66" r="2.4"/><circle class="cls-2" cx="1370" cy="439.98" r="2.4"/><circle class="cls-2" cx="1370" cy="405.34" r="2.4"/><circle class="cls-2" cx="1320" cy="1336.36" r="2.4"/><circle class="cls-2" cx="1350" cy="1319.04" r="2.4"/><circle class="cls-2" cx="1410" cy="1319.04" r="2.4"/><circle class="cls-2" cx="1380" cy="1336.36" r="2.4"/><circle class="cls-2" cx="1293.6" cy="1802.06" r="2.4"/><circle class="cls-2" cx="1323.6" cy="1784.74" r="2.4"/><circle class="cls-2" cx="1383.6" cy="1784.74" r="2.4"/><circle class="cls-2" cx="1353.6" cy="1802.06" r="2.4"/><circle class="cls-2" cx="1321.4" cy="2465.92" r="2.4"/><circle class="cls-2" cx="1351.4" cy="2448.6" r="2.4"/><circle class="cls-2" cx="1411.4" cy="2448.6" r="2.4"/><circle class="cls-2" cx="1381.4" cy="2465.92" r="2.4"/><circle class="cls-2" cx="1237.4" cy="1616.02" r="2.4"/><circle class="cls-2" cx="1207.4" cy="1633.34" r="2.4"/><circle class="cls-2" cx="1207.4" cy="1598.7" r="2.4"/><circle class="cls-2" cx="1262.6" cy="2186.85" r="2.4"/><circle class="cls-2" cx="1232.6" cy="2204.17" r="2.4"/><circle class="cls-2" cx="1232.6" cy="2169.53" r="2.4"/><circle class="cls-2" cx="1050" cy="136.27" r="2.4"/><circle class="cls-2" cx="1080" cy="118.95" r="2.4"/><circle class="cls-2" cx="1080" cy="84.31" r="2.4"/><circle class="cls-2" cx="920.2" cy="269.87" r="2.4"/><circle class="cls-2" cx="1050" cy="395.06" r="2.4"/><circle class="cls-2" cx="1110" cy="360.41" r="2.4"/><circle class="cls-2" cx="1140" cy="377.73" r="2.4"/><circle class="cls-2" cx="1341" cy="1518.54" r="2.4"/><circle class="cls-2" cx="1401" cy="1483.9" r="2.4"/><circle class="cls-2" cx="1431" cy="1501.22" r="2.4"/><circle class="cls-2" cx="1172.4" cy="2687.36" r="2.4"/><circle class="cls-2" cx="1232.4" cy="2652.72" r="2.4"/><circle class="cls-2" cx="1262.4" cy="2670.04" r="2.4"/><circle class="cls-2" cx="1140.8" cy="201.79" r="2.4"/><circle class="cls-2" cx="1062.4" cy="1444.69" r="2.4"/><circle class="cls-2" cx="1062.4" cy="1479.34" r="2.4"/><circle class="cls-2" cx="1125" cy="844.03" r="2.4"/><circle class="cls-2" cx="1185" cy="809.39" r="2.4"/><circle class="cls-2" cx="1215" cy="826.71" r="2.4"/><circle class="cls-2" cx="1295.6" cy="723.98" r="2.4"/><circle class="cls-2" cx="1265.6" cy="741.3" r="2.4"/><circle class="cls-2" cx="1235.6" cy="723.98" r="2.4"/><circle class="cls-2" cx="1110.8" cy="219.11" r="2.4"/><circle class="cls-2" cx="1155" cy="2299.07" r="2.4"/><circle class="cls-2" cx="1125" cy="2316.39" r="2.4"/><circle class="cls-2" cx="1227.4" cy="1960.15" r="2.4"/><circle class="cls-2" cx="1197.4" cy="1942.83" r="2.4"/></g></g></svg>