<svg xmlns="http://www.w3.org/2000/svg" viewBox="0 0 1440 2700"><defs><style>.cls-1{fill:none;stroke:#70a0ff;stroke-miterlimit:10;}.cls-2{fill:#70a0ff;}</style></defs><g id="connections"><g id="blue"><line class="cls-1" x1="1220" y1="163.59" x2="1170" y2="134.72"/><line class="cls-1" x1="1270" y1="134.72" x2="1220" y2="163.59"/><line class="cls-1" x1="1147.6" y1="1147.86" x2="1097.6" y2="1118.99"/><line class="cls-1" x1="1197.6" y1="1118.99" x2="1147.6" y2="1147.86"/><line class="cls-1" x1="1337.6" y1="2298.23" x2="1287.6" y2="2269.36"/><line class="cls-1" x1="1387.6" y1="2269.36" x2="1337.6" y2="2298.23"/><line class="cls-1" x1="1303.6" y1="1950.48" x2="1403.6" y2="2008.21"/><line class="cls-1" x1="1099" y1="528.25" x2="1149" y2="499.38"/><line class="cls-1" x1="1247.4" y1="1387.43" x2="1297.4" y2="1416.29"/><line class="cls-1" x1="1330" y1="240.19" x2="1430" y2="297.93"/></g></g><g id="nodes"><g id="blue-2" data-name="blue"><circle class="cls-2" cx="1170" cy="134.72" r="4"/><circle class="cls-2" cx="1270" cy="134.72" r="4"/><circle class="cls-2" cx="1403.6" cy="2008.21" r="4"/><circle class="cls-2" cx="1353.6" cy="1979.34" r="4"/><circle class="cls-2" cx="1303.6" cy="1950.48" r="4"/><circle class="cls-2" cx="1099" cy="528.25" r="4"/><circle class="cls-2" cx="1149" cy="499.38" r="4"/><circle class="cls-2" cx="1247.4" cy="1387.43" r="4"/><circle class="cls-2" cx="1297.4" cy="1416.29" r="4"/><circle class="cls-2" cx="1380" cy="269.06" r="4"/><circle class="cls-2" cx="1330" cy="240.19" r="4"/><circle class="cls-2" cx="1430" cy="297.93" r="4"/><circle class="cls-2" cx="1220" cy="163.59" r="4"/><circle class="cls-2" cx="1097.6" cy="1118.99" r="4"/><circle class="cls-2" cx="1197.6" cy="1118.99" r="4"/><circle class="cls-2" cx="1147.6" cy="1147.86" r="4"/><circle class="cls-2" cx="1287.6" cy="2269.36" r="4"/><circle class="cls-2" cx="1387.6" cy="2269.36" r="4"/><circle class="cls-2" cx="1337.6" cy="2298.23" r="4"/></g></g></svg>