<svg id="artwork" xmlns="http://www.w3.org/2000/svg" viewBox="0 0 501 79"><path d="M343.7,31.7l-4.58,7.91a.53.53,0,0,1-.77.16C332,35.07,327,40.61,327,46V62.48a.54.54,0,0,1-.54.53H317.4a.54.54,0,0,1-.54-.53V29.81a.54.54,0,0,1,.54-.53h5.51a.52.52,0,0,1,.46.27l2.33,4.05c4.89-6.26,12.9-5.31,17.79-2.64A.53.53,0,0,1,343.7,31.7Z" fill="#2d3340"/><path d="M98.18,32.2A11.78,11.78,0,0,0,89.87,29c-9.53-.17-16.55,7.87-16.42,17.32C73.29,56.38,81,63.7,89.87,63.56a11.52,11.52,0,0,0,8.59-3.91l1.79,3.1a.54.54,0,0,0,.46.26h7.05a.53.53,0,0,0,.53-.53V18.87a.54.54,0,0,0-.8-.46l-9,5.22a.53.53,0,0,0-.27.46ZM90.55,54.56c-4.37.08-7.68-3.75-7.62-8.35-.09-4.46,3.27-8.48,7.62-8.39a8.37,8.37,0,1,1,0,16.74Z" fill="#2d3340"/><path d="M296.21,29a11.79,11.79,0,0,0-8.32,3.25V21.33a.53.53,0,0,0-.8-.46l-9,5.22a.55.55,0,0,0-.27.46V62.48a.54.54,0,0,0,.54.53h7a.53.53,0,0,0,.46-.26l1.8-3.1a11.51,11.51,0,0,0,8.59,3.91c8.84.14,16.58-7.18,16.41-17.29C312.76,36.82,305.74,28.78,296.21,29Zm-.69,25.61a8.37,8.37,0,1,1,0-16.74c4.35-.09,7.71,3.93,7.63,8.39S299.9,54.64,295.52,54.56Z" fill="#2d3340"/><path d="M138.87,59.57a12.47,12.47,0,0,1-9.12,4,17,17,0,0,1-14.62-8.32,17.14,17.14,0,0,1-2.34-9,17.27,17.27,0,0,1,2.26-8.73,17,17,0,0,1,6.11-6.3,16.42,16.42,0,0,1,8.59-2.32,12.16,12.16,0,0,1,9.62,4.46l2.21-3.83a.52.52,0,0,1,.46-.27h5.83a.53.53,0,0,1,.53.53V62.48a.53.53,0,0,1-.53.53h-6.71a.54.54,0,0,1-.46-.26Zm-8.65-21.7a8.06,8.06,0,0,0-7.9,8.35,8,8,0,0,0,7.9,8.34,8.35,8.35,0,0,0,0-16.69Z" fill="#2d3340"/><path d="M167.52,29.31V18.87a.53.53,0,0,0-.8-.46l-9.18,5.3a.54.54,0,0,0-.26.46v5.14h-4.23a.54.54,0,0,0-.54.53V38a.53.53,0,0,0,.54.53h4.23V62.48a.53.53,0,0,0,.53.53H167a.53.53,0,0,0,.53-.53V38.56h4.95A.53.53,0,0,0,173,38V29.84a.53.53,0,0,0-.53-.53Z" fill="#2d3340"/><path d="M231.07,27.45c-2.45,0-3.63.91-3.63,3.89v1.31h5.5a.54.54,0,0,1,.53.54v8a.53.53,0,0,1-.53.53h-5.5V62.48a.53.53,0,0,1-.53.53H218a.53.53,0,0,1-.54-.53V30c-.08-6.31,5.23-11.76,13.55-11.65h1.15a.53.53,0,0,1,.53.53v8.05a.53.53,0,0,1-.53.53Z" fill="#2d3340"/><rect x="346.34" y="29.31" width="10.16" height="33.7" rx="0.53" fill="#2d3340"/><path d="M477.45,33.82a12.81,12.81,0,0,1,10.46-4.93,13,13,0,0,1,5.54,1.38,12.48,12.48,0,0,1,5,4.65,15.57,15.57,0,0,1,2.07,8.46v19.1A.53.53,0,0,1,500,63h-8.82a.54.54,0,0,1-.54-.53V44.42c0-3.47-2.25-6.11-5.75-6.11a5.9,5.9,0,0,0-6.06,6.11V62.48a.53.53,0,0,1-.53.53h-9.1a.53.53,0,0,1-.53-.53V29.81a.53.53,0,0,1,.53-.53h5.36a.53.53,0,0,1,.46.27Z" fill="#2d3340"/><path d="M201.33,59.57a12.47,12.47,0,0,1-9.12,4,17,17,0,0,1-14.62-8.32,17.14,17.14,0,0,1-2.34-9,17.27,17.27,0,0,1,2.26-8.73,16.94,16.94,0,0,1,6.11-6.3,16.4,16.4,0,0,1,8.59-2.32,12.13,12.13,0,0,1,9.61,4.46L204,29.55a.52.52,0,0,1,.46-.27h5.82a.54.54,0,0,1,.54.53V62.48a.53.53,0,0,1-.54.53h-6.7a.54.54,0,0,1-.46-.26Zm-8.65-21.7a8.06,8.06,0,0,0-7.9,8.35,8,8,0,0,0,7.9,8.34,8.35,8.35,0,0,0,0-16.69Z" fill="#2d3340"/><path d="M261.85,59.57a12.47,12.47,0,0,1-9.12,4,16.76,16.76,0,0,1-8.37-2.21,16.58,16.58,0,0,1-6.25-6.11,17.14,17.14,0,0,1-2.34-9A17.27,17.27,0,0,1,238,37.54a16.94,16.94,0,0,1,6.11-6.3,16.4,16.4,0,0,1,8.59-2.32,12.13,12.13,0,0,1,9.61,4.46l2.22-3.83a.52.52,0,0,1,.46-.27h5.82a.54.54,0,0,1,.54.53V62.48a.53.53,0,0,1-.54.53h-6.7a.54.54,0,0,1-.46-.26Zm-8.65-21.7a8.06,8.06,0,0,0-7.9,8.35,8,8,0,0,0,7.9,8.34,8.35,8.35,0,0,0,0-16.69Z" fill="#2d3340"/><path d="M383.72,41.43l9.45-11.27a.54.54,0,0,0-.41-.88H382.1a.55.55,0,0,0-.41.19l-9,10.76V18.87a.54.54,0,0,0-.8-.46l-8.16,4.71a.53.53,0,0,0-.27.46v38.9A.53.53,0,0,0,364,63h8.17a.53.53,0,0,0,.53-.53V54.59L377.4,49l8,13.8a.56.56,0,0,0,.47.26h9.43a.53.53,0,0,0,.46-.8Z" fill="#2d3340"/><path d="M419.78,41.43l9.46-11.27a.54.54,0,0,0-.41-.88H418.17a.53.53,0,0,0-.41.19l-9,10.76V18.87a.53.53,0,0,0-.79-.46l-8.17,4.71a.54.54,0,0,0-.26.46v38.9A.53.53,0,0,0,400,63h8.17a.53.53,0,0,0,.53-.53V54.59L413.47,49l8,13.8a.54.54,0,0,0,.46.26h9.43a.54.54,0,0,0,.47-.8Z" fill="#2d3340"/><path d="M346.84,25.73H356a.53.53,0,0,0,.53-.53V16.52a.53.53,0,0,0-.8-.46l-9.15,5.84a.52.52,0,0,0-.27.46V25.2A.53.53,0,0,0,346.84,25.73Z" fill="#2d3340"/><path d="M456.32,52.19l-.66.55A13.38,13.38,0,0,1,453.92,54a10.64,10.64,0,0,1-5.53,1.21,7.7,7.7,0,0,1-7.55-5.84H463.3a.53.53,0,0,0,.53-.53v-2.8a17.3,17.3,0,0,0-2.47-9.55,16,16,0,0,0-6.09-5.71A15.82,15.82,0,0,0,448.16,29a16.75,16.75,0,0,0-17,17.29,16.44,16.44,0,0,0,2.39,8.65,17.94,17.94,0,0,0,6.39,6.3,16.52,16.52,0,0,0,8.51,2.35,20.26,20.26,0,0,0,6.53-1,18.13,18.13,0,0,0,5.83-3.48.54.54,0,0,0,.11-.67l-3.59-6.23a.53.53,0,0,0-.81-.14ZM447.86,37c3.06,0,5.43,1.77,6.86,4.88H441.36C442.57,39,445,37,447.86,37Z" fill="#2d3340"/><path d="M38.08,10.09V21.6l-10-5.77a.64.64,0,0,0-.6,0L.8,31.27a.57.57,0,0,0-.3.51V62.66a.58.58,0,0,0,.3.51L27.53,78.61a.64.64,0,0,0,.6,0L54.87,63.17a.6.6,0,0,0,.29-.51V.9a.59.59,0,0,0-.88-.51L38.38,9.58A.59.59,0,0,0,38.08,10.09ZM26.35,62.15,14.46,55.28a.59.59,0,0,1-.3-.51V41l12.19,7ZM15.65,38.47l11.91-6.85a.64.64,0,0,1,.6,0L40,38.47l-12.19,7ZM41.21,55.28l-11.9,6.87V48.07L41.5,41V54.77A.58.58,0,0,1,41.21,55.28Z" fill="#2d3340"/></svg>